<svg width="24" height="24" viewBox="0 0 24 24" fill="none" xmlns="http://www.w3.org/2000/svg">
<path d="M20.6154 0H3.38461C2.48716 0.000651984 1.62665 0.357454 0.992051 0.992051C0.357454 1.62665 0.000651984 2.48716 0 3.38461V20.6154C0.000651984 21.5128 0.357454 22.3733 0.992051 23.0079C1.62665 23.6425 2.48716 23.9993 3.38461 24H13.4425C13.8871 24.0012 14.3275 23.9141 14.7382 23.7438C15.1489 23.5735 15.5217 23.3234 15.8351 23.008L23.008 15.8351C23.648 15.1951 24 14.3458 24 13.4412V3.38461C23.9993 2.48716 23.6425 1.62665 23.0079 0.992051C22.3733 0.357454 21.5128 0.000651984 20.6154 0Z" fill="#BAD7FF"/>
<path d="M16.8738 13.5386C15.9764 13.5392 15.1158 13.896 14.4812 14.5306C13.8467 15.1652 13.4898 16.0257 13.4892 16.9232V23.9952C14.3703 23.9865 15.2128 23.632 15.835 23.0081L23.008 15.8352C23.6187 15.2246 23.9705 14.402 23.9901 13.5386H16.8738Z" fill="#549BFF"/>
</svg>
